<mxfile host="app.diagrams.net" modified="2023-07-04T15:28:17.657Z" agent="Mozilla/5.0 (Macintosh; Intel Mac OS X 10_15_7) AppleWebKit/537.36 (KHTML, like Gecko) Chrome/114.0.0.0 Safari/537.36" etag="ePqtR3eoXjf08uuYmyi8" version="21.5.2" type="device">
  <diagram id="OrkIbrztJ1y_XgYg2KO4" name="Page-1">
    <mxGraphModel dx="830" dy="465" grid="1" gridSize="10" guides="1" tooltips="1" connect="1" arrows="1" fold="1" page="1" pageScale="1" pageWidth="850" pageHeight="1100" math="0" shadow="0">
      <root>
        <mxCell id="0" />
        <mxCell id="1" parent="0" />
        <mxCell id="s0rYcjBngIkmkLEhmVyZ-11" value="" style="edgeStyle=orthogonalEdgeStyle;rounded=0;orthogonalLoop=1;jettySize=auto;html=1;" parent="1" source="s0rYcjBngIkmkLEhmVyZ-1" target="s0rYcjBngIkmkLEhmVyZ-3" edge="1">
          <mxGeometry relative="1" as="geometry" />
        </mxCell>
        <mxCell id="s0rYcjBngIkmkLEhmVyZ-1" value="S" style="rounded=1;whiteSpace=wrap;html=1;" parent="1" vertex="1">
          <mxGeometry x="120" y="280" width="40" height="40" as="geometry" />
        </mxCell>
        <mxCell id="IHAdKnhki5GRrNBpXUjF-5" style="edgeStyle=orthogonalEdgeStyle;rounded=0;orthogonalLoop=1;jettySize=auto;html=1;exitX=1;exitY=0.5;exitDx=0;exitDy=0;entryX=0;entryY=0.5;entryDx=0;entryDy=0;" edge="1" parent="1" source="s0rYcjBngIkmkLEhmVyZ-3" target="s0rYcjBngIkmkLEhmVyZ-5">
          <mxGeometry relative="1" as="geometry" />
        </mxCell>
        <mxCell id="IHAdKnhki5GRrNBpXUjF-6" style="edgeStyle=orthogonalEdgeStyle;rounded=0;orthogonalLoop=1;jettySize=auto;html=1;exitX=1;exitY=0.5;exitDx=0;exitDy=0;entryX=0;entryY=0.5;entryDx=0;entryDy=0;" edge="1" parent="1" source="s0rYcjBngIkmkLEhmVyZ-3" target="s0rYcjBngIkmkLEhmVyZ-4">
          <mxGeometry relative="1" as="geometry" />
        </mxCell>
        <mxCell id="s0rYcjBngIkmkLEhmVyZ-3" value="E" style="rounded=1;whiteSpace=wrap;html=1;" parent="1" vertex="1">
          <mxGeometry x="200" y="280" width="40" height="40" as="geometry" />
        </mxCell>
        <mxCell id="IHAdKnhki5GRrNBpXUjF-7" style="edgeStyle=orthogonalEdgeStyle;rounded=0;orthogonalLoop=1;jettySize=auto;html=1;exitX=1;exitY=0.5;exitDx=0;exitDy=0;entryX=0;entryY=0.5;entryDx=0;entryDy=0;" edge="1" parent="1" source="s0rYcjBngIkmkLEhmVyZ-4" target="s0rYcjBngIkmkLEhmVyZ-6">
          <mxGeometry relative="1" as="geometry" />
        </mxCell>
        <mxCell id="IHAdKnhki5GRrNBpXUjF-9" style="rounded=0;orthogonalLoop=1;jettySize=auto;html=1;exitX=1;exitY=0.5;exitDx=0;exitDy=0;entryX=0;entryY=0.5;entryDx=0;entryDy=0;" edge="1" parent="1" source="s0rYcjBngIkmkLEhmVyZ-4" target="s0rYcjBngIkmkLEhmVyZ-7">
          <mxGeometry relative="1" as="geometry" />
        </mxCell>
        <mxCell id="s0rYcjBngIkmkLEhmVyZ-4" value="Ic" style="rounded=1;whiteSpace=wrap;html=1;" parent="1" vertex="1">
          <mxGeometry x="320" y="240" width="40" height="40" as="geometry" />
        </mxCell>
        <mxCell id="IHAdKnhki5GRrNBpXUjF-8" style="edgeStyle=orthogonalEdgeStyle;rounded=0;orthogonalLoop=1;jettySize=auto;html=1;exitX=1;exitY=0.5;exitDx=0;exitDy=0;entryX=0;entryY=0.5;entryDx=0;entryDy=0;" edge="1" parent="1" source="s0rYcjBngIkmkLEhmVyZ-5" target="s0rYcjBngIkmkLEhmVyZ-6">
          <mxGeometry relative="1" as="geometry" />
        </mxCell>
        <mxCell id="s0rYcjBngIkmkLEhmVyZ-5" value="Isc" style="rounded=1;whiteSpace=wrap;html=1;" parent="1" vertex="1">
          <mxGeometry x="320" y="320" width="40" height="40" as="geometry" />
        </mxCell>
        <mxCell id="IHAdKnhki5GRrNBpXUjF-15" style="edgeStyle=orthogonalEdgeStyle;rounded=0;orthogonalLoop=1;jettySize=auto;html=1;exitX=0.5;exitY=1;exitDx=0;exitDy=0;entryX=0.5;entryY=0;entryDx=0;entryDy=0;" edge="1" parent="1" source="s0rYcjBngIkmkLEhmVyZ-6" target="IHAdKnhki5GRrNBpXUjF-13">
          <mxGeometry relative="1" as="geometry" />
        </mxCell>
        <mxCell id="s0rYcjBngIkmkLEhmVyZ-6" value="R" style="rounded=1;whiteSpace=wrap;html=1;" parent="1" vertex="1">
          <mxGeometry x="440" y="260" width="40" height="40" as="geometry" />
        </mxCell>
        <mxCell id="s0rYcjBngIkmkLEhmVyZ-7" value="D" style="rounded=1;whiteSpace=wrap;html=1;" parent="1" vertex="1">
          <mxGeometry x="440" y="200" width="40" height="40" as="geometry" />
        </mxCell>
        <mxCell id="s0rYcjBngIkmkLEhmVyZ-10" value="" style="endArrow=classic;html=1;rounded=0;entryX=0;entryY=0.5;entryDx=0;entryDy=0;" parent="1" target="s0rYcjBngIkmkLEhmVyZ-3" edge="1">
          <mxGeometry width="50" height="50" relative="1" as="geometry">
            <mxPoint x="160" y="300" as="sourcePoint" />
            <mxPoint x="210" y="250" as="targetPoint" />
          </mxGeometry>
        </mxCell>
        <mxCell id="s0rYcjBngIkmkLEhmVyZ-26" value="" style="edgeStyle=orthogonalEdgeStyle;rounded=0;orthogonalLoop=1;jettySize=auto;html=1;" parent="1" source="s0rYcjBngIkmkLEhmVyZ-19" target="s0rYcjBngIkmkLEhmVyZ-20" edge="1">
          <mxGeometry relative="1" as="geometry" />
        </mxCell>
        <mxCell id="s0rYcjBngIkmkLEhmVyZ-19" value="V1" style="rounded=1;whiteSpace=wrap;html=1;" parent="1" vertex="1">
          <mxGeometry x="200" y="400" width="40" height="40" as="geometry" />
        </mxCell>
        <mxCell id="s0rYcjBngIkmkLEhmVyZ-27" value="" style="edgeStyle=orthogonalEdgeStyle;rounded=0;orthogonalLoop=1;jettySize=auto;html=1;" parent="1" source="s0rYcjBngIkmkLEhmVyZ-20" target="s0rYcjBngIkmkLEhmVyZ-21" edge="1">
          <mxGeometry relative="1" as="geometry" />
        </mxCell>
        <mxCell id="s0rYcjBngIkmkLEhmVyZ-20" value="V2" style="rounded=1;whiteSpace=wrap;html=1;" parent="1" vertex="1">
          <mxGeometry x="280" y="400" width="40" height="40" as="geometry" />
        </mxCell>
        <mxCell id="IHAdKnhki5GRrNBpXUjF-3" style="edgeStyle=orthogonalEdgeStyle;rounded=0;orthogonalLoop=1;jettySize=auto;html=1;exitX=1;exitY=0.75;exitDx=0;exitDy=0;entryX=0;entryY=0.75;entryDx=0;entryDy=0;" edge="1" parent="1" source="s0rYcjBngIkmkLEhmVyZ-21" target="s0rYcjBngIkmkLEhmVyZ-22">
          <mxGeometry relative="1" as="geometry" />
        </mxCell>
        <mxCell id="s0rYcjBngIkmkLEhmVyZ-21" value="VW" style="rounded=1;whiteSpace=wrap;html=1;" parent="1" vertex="1">
          <mxGeometry x="360" y="400" width="40" height="40" as="geometry" />
        </mxCell>
        <mxCell id="IHAdKnhki5GRrNBpXUjF-4" style="edgeStyle=orthogonalEdgeStyle;rounded=0;orthogonalLoop=1;jettySize=auto;html=1;exitX=0;exitY=0.25;exitDx=0;exitDy=0;entryX=1;entryY=0.25;entryDx=0;entryDy=0;" edge="1" parent="1" source="s0rYcjBngIkmkLEhmVyZ-22" target="s0rYcjBngIkmkLEhmVyZ-21">
          <mxGeometry relative="1" as="geometry" />
        </mxCell>
        <mxCell id="s0rYcjBngIkmkLEhmVyZ-22" value="VBoost" style="rounded=1;whiteSpace=wrap;html=1;" parent="1" vertex="1">
          <mxGeometry x="440" y="400" width="40" height="40" as="geometry" />
        </mxCell>
        <mxCell id="IHAdKnhki5GRrNBpXUjF-2" style="edgeStyle=orthogonalEdgeStyle;rounded=0;orthogonalLoop=1;jettySize=auto;html=1;exitX=1;exitY=0.5;exitDx=0;exitDy=0;entryX=0;entryY=0.5;entryDx=0;entryDy=0;" edge="1" parent="1" source="IHAdKnhki5GRrNBpXUjF-1" target="s0rYcjBngIkmkLEhmVyZ-19">
          <mxGeometry relative="1" as="geometry" />
        </mxCell>
        <mxCell id="IHAdKnhki5GRrNBpXUjF-1" value="V0" style="rounded=1;whiteSpace=wrap;html=1;" vertex="1" parent="1">
          <mxGeometry x="120" y="400" width="40" height="40" as="geometry" />
        </mxCell>
        <mxCell id="IHAdKnhki5GRrNBpXUjF-14" style="edgeStyle=orthogonalEdgeStyle;rounded=0;orthogonalLoop=1;jettySize=auto;html=1;exitX=0.5;exitY=1;exitDx=0;exitDy=0;entryX=0.5;entryY=1;entryDx=0;entryDy=0;" edge="1" parent="1" source="IHAdKnhki5GRrNBpXUjF-13" target="s0rYcjBngIkmkLEhmVyZ-3">
          <mxGeometry relative="1" as="geometry" />
        </mxCell>
        <mxCell id="IHAdKnhki5GRrNBpXUjF-13" value="RW" style="rounded=1;whiteSpace=wrap;html=1;" vertex="1" parent="1">
          <mxGeometry x="440" y="320" width="40" height="40" as="geometry" />
        </mxCell>
      </root>
    </mxGraphModel>
  </diagram>
</mxfile>
